<svg xmlns="http://www.w3.org/2000/svg" viewBox="0 0 100 120" fill="none">
  <defs>
    <filter id="dropshadow" x="-15%" y="-15%" width="130%" height="130%">
      <feDropShadow dx="2" dy="4" stdDeviation="5" flood-color="#000000" flood-opacity="0.3"/>
    </filter>
  </defs>
  <g filter="url(#dropshadow)">
    <!-- Dragon head -->
    <path d="M55 8 C58 5 60 3 58 6 C56 10 54 13 52 16 M48 10 C50 6 53 3 51 5 C49 9 47 12 46 16" stroke="#fff" stroke-width="1.5" fill="none" opacity="0.6"/>
    <!-- Horns -->
    <path d="M58 6 L62 1 L59 8 Z" fill="#ffffff" opacity="0.7"/>
    <path d="M50 8 L52 2 L49 10 Z" fill="#ffffff" opacity="0.5"/>
    <!-- Head shape -->
    <path d="M50 15 C58 12 66 14 72 20 C76 24 78 30 76 36 C74 32 72 30 70 31 C74 35 75 40 72 42 L68 40 C65 42 62 42 60 40 C56 36 52 32 48 28 C44 24 40 22 36 24 C30 28 26 34 24 42 C22 50 22 58 26 64 C30 68 34 70 38 74 C40 78 38 84 34 90 C30 96 24 102 18 108 C22 106 26 100 32 94 C36 88 38 82 36 76 C34 70 30 66 26 62 C22 56 20 48 22 40 C24 30 30 22 38 18 C44 14 48 14 50 15 Z" fill="#ffffff"/>
    <!-- Mane spikes -->
    <path d="M24 42 C18 40 14 44 18 50" fill="#ffffff" opacity="0.7"/>
    <path d="M22 56 C16 54 12 58 16 64" fill="#ffffff" opacity="0.6"/>
    <path d="M26 68 C20 66 16 70 20 76" fill="#ffffff" opacity="0.5"/>
    <path d="M34 80 C28 78 24 82 28 88" fill="#ffffff" opacity="0.4"/>
    <!-- Eye -->
    <circle cx="60" cy="26" r="2.5" fill="#1a1a2e"/>
    <circle cx="60.8" cy="25.3" r="0.8" fill="#00d4ff"/>
    <!-- Nostril -->
    <ellipse cx="74" cy="38" rx="1" ry="0.8" fill="#d0d0d0" opacity="0.5"/>
    <!-- Neck detail lines -->
    <path d="M38 30 C35 36 32 42 30 50" stroke="#e0e0e0" stroke-width="0.6" fill="none" opacity="0.3"/>
    <path d="M42 28 C38 34 35 40 33 48" stroke="#e0e0e0" stroke-width="0.6" fill="none" opacity="0.25"/>
    <!-- Lower flowing tendrils -->
    <path d="M18 108 C14 112 12 115 14 114 C16 112 20 108 22 104" fill="#ffffff" opacity="0.4"/>
    <path d="M26 100 C22 104 18 108 16 112 C20 108 24 102 26 98" fill="#ffffff" opacity="0.35"/>
  </g>
</svg>
